Coordinates
version=1
nRows=29
nColumns=24
inDegrees=yes

Units are S.I. units (second, meters, Newtons, ...)
Angles are in degrees.

endheader
time	pelvis_tilt	pelvis_list	pelvis_rotation	pelvis_tx	pelvis_ty	pelvis_tz	hip_flexion_r	hip_adduction_r	hip_rotation_r	knee_angle_r	ankle_angle_r	subtalar_angle_r	mtp_angle_r	hip_flexion_l	hip_adduction_l	hip_rotation_l	knee_angle_l	ankle_angle_l	subtalar_angle_l	mtp_angle_l	lumbar_extension	lumbar_bending	lumbar_rotation
      8.32500000	    -10.87016506	      4.33035026	     -5.93160750	     -1.16289328	     -0.04463837	      0.67424781	     -6.36858754	     -5.34262923	      7.46320130	    -15.18469780	      9.31063860	      5.20360263	     15.83433516	     38.91431093	     -0.45787977	     -5.23126193	    -24.41524594	     -0.35858672	      3.25851447	      1.14438838	      7.42410117	     -2.01402981	      7.94542868
      8.33000000	    -11.00758234	      4.69249171	     -5.94191661	     -1.15496043	     -0.04533343	      0.67397187	     -5.96989988	     -5.75748899	      7.37803733	    -16.37853542	      8.75272833	      5.57590063	     16.41188980	     39.10966169	     -0.01652257	     -5.00456759	    -25.19898406	     -0.89514671	      2.66956703	      1.32927547	      7.67782678	     -2.55384141	      7.88226084
      8.33500000	    -11.14741862	      5.09413707	     -5.87658741	     -1.14700387	     -0.04598162	      0.67361329	     -5.49133262	     -6.21773900	      7.10985163	    -17.70101990	      8.10086449	      6.05464713	     17.22463935	     39.33385399	      0.52048513	     -4.70470747	    -26.01148894	     -1.25755062	      1.98187238	      1.07994114	      7.93798401	     -3.15200450	      7.74675259
      8.34000000	    -11.21244871	      5.54400489	     -5.74578015	     -1.13897382	     -0.04646030	      0.67317613	     -5.05642979	     -6.74201268	      6.71491294	    -19.02448216	      7.04783322	      6.29940074	     19.23105057	     39.48648706	      1.18146882	     -4.31674558	    -26.87611051	     -0.96921794	      1.28985782	     -1.16422901	      8.12623762	     -3.82342204	      7.56238869
      8.34500000	    -11.30470991	      5.98543539	     -5.59382618	     -1.13103876	     -0.04694344	      0.67261550	     -4.48092537	     -7.26746240	      6.26981565	    -20.55766114	      6.05379713	      6.78912980	     20.62426489	     39.69591179	      1.87196395	     -3.91620998	    -27.80270398	     -0.12596358	      0.48428913	     -5.39022244	      8.32257172	     -4.47507836	      7.33277285
      8.35000000	    -11.38471527	      6.42906403	     -5.42748376	     -1.12312244	     -0.04737783	      0.67205151	     -3.84453175	     -7.80238149	      5.79775213	    -22.18909824	      4.87942538	      7.24731671	     22.23199868	     39.87153780	      2.57923654	     -3.55078057	    -28.67841586	      0.96253445	     -0.40755827	    -10.60913226	      8.50221370	     -5.13341441	      7.07023885
      8.35500000	    -11.45329344	      6.89807429	     -5.29839630	     -1.11519331	     -0.04775373	      0.67157365	     -3.12898617	     -8.37443357	      5.30793219	    -23.92471721	      3.50199471	      7.62755592	     23.96296671	     39.97311147	      3.30214131	     -3.15951803	    -29.45330913	      2.35213191	     -1.31999924	    -16.84414756	      8.68236828	     -5.81580584	      6.95062963
      8.36000000	    -11.53814308	      7.35956146	     -5.25559414	     -1.10739721	     -0.04813407	      0.67120071	     -2.28303084	     -8.93715913	      4.98788735	    -25.79022916	      2.02975328	      8.04392808	     25.50149809	     40.05796774	      3.94437470	     -2.94057852	    -30.14258696	      3.81546475	     -2.23599439	    -23.31125260	      8.87254521	     -6.46509014	      6.86281272
      8.36500000	    -11.53005108	      7.71922360	     -5.02976721	     -1.09959410	     -0.04841032	      0.67065978	     -1.57543529	     -9.39921563	      4.44261054	    -27.60086375	      0.20066787	      8.20741470	     27.47265020	     39.96393003	      4.62543859	     -2.54385411	    -30.63487204	      4.12907941	     -3.28261475	    -25.87217386	      8.92394954	     -7.05853697	      6.52929950
      8.37000000	    -11.59911185	      8.09647706	     -4.83827114	     -1.09177013	     -0.04876511	      0.67018964	     -0.71170528	     -9.87610740	      3.95610081	    -29.47825311	     -1.80609332	      8.23790205	     29.40731296	     39.89789787	      5.28243651	     -2.20071665	    -31.08064061	      4.61100051	     -4.07375110	    -28.14917492	      9.07441178	     -7.65320945	      6.30393348
      8.37500000	    -11.68866435	      8.45207335	     -4.68814090	     -1.08415736	     -0.04914778	      0.66959413	      0.26985328	    -10.34786720	      3.56572825	    -31.47814935	     -3.73526611	      8.53433283	     30.56109990	     39.81445651	      5.91455380	     -1.87496226	    -31.44473913	      4.71232920	     -4.93028730	    -28.90169343	      9.22100441	     -8.18376094	      6.13541161
      8.38000000	    -11.67923682	      8.76365543	     -4.52998738	     -1.07646182	     -0.04928113	      0.66911902	      1.10756463	    -10.75213118	      3.20785500	    -33.26468863	     -6.35583712	      8.05106862	     33.29771011	     39.55979378	      6.50167742	     -1.58364527	    -31.76918460	      5.19236623	     -5.44022586	    -29.87003942	      9.26652019	     -8.69325478	      5.89848420
      8.38500000	    -11.73530603	      9.03955662	     -4.37738097	     -1.06899161	     -0.04945660	      0.66847215	      2.09236797	    -11.12533929	      2.89324926	    -35.13709072	     -8.90918729	      7.70308079	     35.31783254	     39.35100302	      7.07291040	     -1.24259234	    -32.04314111	      5.54258085	     -6.08996524	    -30.47543445	      9.35091254	     -9.12453116	      5.71023227
      8.39000000	    -11.72666623	      9.31587660	     -4.23004028	     -1.06145465	     -0.04947133	      0.66800292	      2.99924935	    -11.47470875	      2.61972431	    -36.90665236	    -11.72233742	      6.95398809	     37.72554404	     39.02331619	      7.60202111	     -1.00709511	    -32.27975946	      6.15662055	     -6.39993516	    -31.06094979	      9.38055271	     -9.57944678	      5.46761056
      8.39500000	    -11.78269869	      9.58692294	     -4.06559127	     -1.05403980	     -0.04949825	      0.66741090	      4.01961391	    -11.82165655	      2.34618598	    -38.69777981	    -14.49950243	      6.17552027	     39.83738524	     38.73988280	      8.13742353	     -0.74948519	    -32.46900821	      6.74162495	     -6.76889557	    -31.66201134	      9.46413795	    -10.00489770	      5.22968756
      8.40000000	    -11.84035702	      9.83860413	     -3.91018817	     -1.04670702	     -0.04944419	      0.66682592	      5.07106380	    -12.13822009	      2.09623140	    -40.47303369	    -17.26657625	      5.22040577	     41.76861453	     38.43071172	      8.63892447	     -0.50999863	    -32.62261772	      7.37507969	     -7.05582753	    -32.25558806	      9.54183082	    -10.39851340	      5.00722371
      8.40500000	    -11.91175874	     10.10973860	     -3.75502717	     -1.03941318	     -0.04933637	      0.66623412	      6.16657150	    -12.47015486	      1.86662414	    -42.24976639	    -19.92122298	      4.15208930	     43.43561357	     38.10409040	      9.15094015	     -0.28048661	    -32.72225624	      8.01861932	     -7.27638973	    -32.80404254	      9.63804713	    -10.80198275	      4.79099625
      8.41000000	    -11.99130891	     10.40455968	     -3.60362893	     -1.03214385	     -0.04916590	      0.66565761	      7.29702494	    -12.81976104	      1.66560123	    -44.03159607	    -22.38255196	      2.97806828	     44.76743023	     37.75600511	      9.67279841	     -0.07529637	    -32.76765463	      8.64017780	     -7.43586481	    -33.25649895	      9.74912780	    -11.22379809	      4.56129340
      8.41500000	    -12.07986438	     10.72225807	     -3.46026375	     -1.02488853	     -0.04894396	      0.66512009	      8.46405324	    -13.18232380	      1.50472001	    -45.83212019	    -24.56303165	      1.71038704	     45.68820936	     37.38503075	     10.20324275	      0.12545878	    -32.75337480	      9.21367512	     -7.56677514	    -33.57114384	      9.88268653	    -11.66224067	      4.33990655
      8.42000000	    -12.16287744	     11.06376321	     -3.32375378	     -1.01763537	     -0.04866540	      0.66457535	      9.65036576	    -13.57596847	      1.35176000	    -47.65102627	    -26.41336158	      0.38194834	     46.24335132	     36.98102158	     10.74365305	      0.28816141	    -32.68174613	      9.74353582	     -7.68574158	    -33.79751480	     10.01844752	    -12.11068194	      4.15428984
      8.42500000	    -12.17218021	     11.50902713	     -3.18824923	     -1.01035550	     -0.04828715	      0.66407790	     10.78302285	    -14.09900500	      1.20751198	    -49.51873349	    -27.70784846	     -0.78566291	     46.15653165	     36.46975147	     11.37563137	      0.36935286	    -32.51937784	     10.11140461	     -7.85489635	    -33.78605135	     10.09124059	    -12.67910170	      3.94973990
      8.43000000	    -12.24959193	     11.84276873	     -3.09658046	     -1.00306678	     -0.04783625	      0.66363346	     11.99456444	    -14.45304716	      1.17444408	    -51.32560320	    -28.83304485	     -2.22214202	     46.12041423	     35.99311354	     11.86832891	      0.48468491	    -32.31595877	     10.51321765	     -8.05507940	    -33.87242011	     10.25492658	    -13.09846645	      3.76911194
      8.43500000	    -12.29045895	     12.20082534	     -2.98470814	     -0.99575311	     -0.04732263	      0.66319520	     13.16315590	    -14.85684870	      1.10584264	    -53.12143714	    -29.45493669	     -3.53638445	     45.96663889	     35.45972037	     12.38136343	      0.57233222	    -32.08042661	     10.93117173	     -8.14590509	    -33.97073115	     10.38291915	    -13.54831129	      3.58700034
      8.44000000	    -12.36066594	     12.47793917	     -2.87932958	     -0.98844790	     -0.04675983	      0.66283126	     14.36147137	    -15.15418147	      1.05142180	    -54.89743100	    -29.66392531	     -4.79842536	     45.37279863	     34.94277349	     12.79088634	      0.66948699	    -31.85421048	     11.54196334	     -8.06715921	    -34.44496867	     10.54490213	    -13.90638957	      3.41265262
      8.44500000	    -12.29233211	     12.85284410	     -2.79077726	     -0.98107341	     -0.04595040	      0.66241964	     15.40178284	    -15.59382410	      1.02079575	    -56.59283841	    -29.43996346	     -5.76542832	     45.07979454	     34.22436696	     13.32124652	      0.77885424	    -31.49226428	     11.85569071	     -8.13457819	    -34.48005965	     10.57444104	    -14.36634517	      3.20894554
      8.45000000	    -12.25939986	     13.12854723	     -2.77653579	     -0.97366728	     -0.04507528	      0.66211381	     16.48852962	    -15.88903773	      1.03463079	    -58.23885684	    -28.88227696	     -6.76144420	     44.21390659	     33.51288171	     13.71712691	      0.91109754	    -31.10032904	     12.20511253	     -8.23394944	    -34.58612628	     10.67009755	    -14.69117259	      3.14483433
      8.45500000	    -12.18944262	     13.37143991	     -2.73817783	     -0.96623672	     -0.04408046	      0.66182363	     17.51003128	    -16.16044580	      1.02754230	    -59.81609162	    -28.00723937	     -7.41852845	     43.17389913	     32.73780091	     14.08247498	      1.05229049	    -30.68782076	     12.56582303	     -8.19763813	    -34.62566133	     10.72509332	    -14.99249904	      2.98599469
      8.46000000	    -12.08296973	     13.53562616	     -2.70751171	     -0.95879850	     -0.04294286	      0.66152806	     18.46186822	    -16.34988908	      1.01373344	    -61.28686373	    -26.94040106	     -7.82964887	     42.12607973	     31.89676530	     14.37010456	      1.23449482	    -30.25217605	     12.91141983	     -8.12420106	    -34.58775728	     10.73588023	    -15.20534391	      2.81501350
      8.46500000	    -11.96436740	     13.63938995	     -2.68558492	     -0.95129121	     -0.04166729	      0.66124132	     19.36429729	    -16.47384857	      0.99102998	    -62.61983963	    -25.85634168	     -8.17184917	     41.39074065	     31.00424149	     14.59072182	      1.41546803	    -29.75982205	     13.20530531	     -8.08242909	    -34.49220038	     10.74824431	    -15.34944612	      2.60765038
